# xmcd CD database file
#
# Track frame offsets:
#	150
#	17335
#	38637
#	60122
#	79302
#	100543
#	123797
#	146485
#	171667
#	197140
#	217110
#	233317
#	247770
#	264435
#	285767
#	307883
#	321912
#	342810
#
# Disc length: 4798 seconds
#
# Revision: 13
# Processed by: cddbd v1.5.2PL0 Copyright (c) Steve Scherf et al.
# Submitted via: CDex 1.79
#
DISCID=e012bc12
DTITLE=ASIA - GOLD (REMASTERED)
DYEAR=2005
DGENRE=Classic Rock
TTITLE0=Heat Of The Moment
TTITLE1=Only Time Will Tell
TTITLE2=Sole Survivor
TTITLE3=One Step Closer
TTITLE4=Time Again
TTITLE5=Wildest Dreams
TTITLE6=Without You
TTITLE7=Cutting It Fine
TTITLE8=Here Comes The Feeling
TTITLE9=Ride Easy
TTITLE10=Don't Cry
TTITLE11=The Smile Has Left Your Eyes
TTITLE12=Never In A Million Years
TTITLE13=My Own Time(I'll Do What I Want)
TTITLE14=The Heat Goes On
TTITLE15=Eye To Eye
TTITLE16=The Last To Know
TTITLE17=True Colors
EXTD=YEAR: 2005
EXTT0=
EXTT1=
EXTT2=
EXTT3=
EXTT4=
EXTT5=
EXTT6=
EXTT7=
EXTT8=
EXTT9=
EXTT10=
EXTT11=
EXTT12=
EXTT13=
EXTT14=
EXTT15=
EXTT16=
EXTT17=
PLAYORDER=
